<svg xmlns="http://www.w3.org/2000/svg" xmlns:xlink="http://www.w3.org/1999/xlink" width="70" height="70" viewBox="0 0 70 70">
  <defs>
    <clipPath id="clip-path">
      <rect width="70" height="70" fill="none"/>
    </clipPath>
  </defs>
  <g id="Cuadrícula_de_repetición_1" data-name="Cuadrícula de repetición 1" clip-path="url(#clip-path)">
    <g transform="translate(-22 -14.19)">
      <g id="Grupo_4" data-name="Grupo 4" transform="translate(37.983 31.114)">
        <path id="Trazado_6" data-name="Trazado 6" d="M-1022.492,1129.69c.368.071.738.133,1.1.214a9.413,9.413,0,0,1,6.755,12.75c-.029.072-.054.145-.1.26.253.1.5.2.752.289q3.547,1.266,7.1,2.529c.685.244.8.409.8,1.149q0,6.568,0,13.136a.558.558,0,0,0,.339.6,2.253,2.253,0,0,1,1.223,1.84q.39,3.14.776,6.28a.8.8,0,0,1-.857.991q-2.248.01-4.5,0c-.634,0-.953-.327-.882-.958.181-1.591.389-3.179.586-4.769.063-.5.135-1.007.185-1.512a2.373,2.373,0,0,1,1.283-1.931.564.564,0,0,0,.27-.389q.021-6.138.01-12.276c0-.051-.011-.1-.022-.2-.763.269-1.509.529-2.252.8-.875.314-.874.317-.874,1.256,0,2.567-.013,5.134.005,7.7a2.548,2.548,0,0,1-1.657,2.567,26.506,26.506,0,0,1-12.981,2.27,26.165,26.165,0,0,1-9.052-2.376,2.358,2.358,0,0,1-1.445-2.3c-.005-2.789-.009-5.577.008-8.366a.527.527,0,0,0-.433-.6c-1.159-.39-2.307-.812-3.459-1.221-.591-.21-.836-.457-.82-.857.02-.51.387-.683.8-.831q3.732-1.323,7.459-2.662c.119-.043.236-.092.3-.118-.212-.876-.476-1.709-.61-2.562a9.371,9.371,0,0,1,6.157-10.139c.745-.252,1.534-.375,2.3-.558Zm-11.838,19.686a1.688,1.688,0,0,0-.028.182q0,4.046,0,8.091a.892.892,0,0,0,.6.87,24.788,24.788,0,0,0,8.415,2.2,24.953,24.953,0,0,0,12.258-2.13,1.094,1.094,0,0,0,.74-1.139c-.018-2.554-.007-5.107-.009-7.661,0-.124-.015-.248-.024-.4-.158.051-.28.086-.4.129q-5.034,1.8-10.066,3.6a1.412,1.412,0,0,1-1.019,0q-4.607-1.663-9.224-3.3C-1033.492,1149.666-1033.894,1149.528-1034.33,1149.376Zm3.12-10.284a7.872,7.872,0,0,0,7.8,7.875,7.857,7.857,0,0,0,7.9-7.841,7.853,7.853,0,0,0-7.792-7.872A7.862,7.862,0,0,0-1031.21,1139.092Zm21.983,7.466-6.266-2.24a9.293,9.293,0,0,1-7.86,4.2,9.291,9.291,0,0,1-7.868-4.2l-6.269,2.241c.182.076.262.114.346.144q6.76,2.412,13.523,4.812a1.082,1.082,0,0,0,.666-.036q6.656-2.362,13.3-4.747C-1009.534,1146.692-1009.42,1146.638-1009.227,1146.558Zm3.826,21.592-.424-3.373a2.448,2.448,0,0,1-2.088.005l-.422,3.367Zm-1.485-6.259a.762.762,0,0,0-.759.777.788.788,0,0,0,.8.788.81.81,0,0,0,.769-.788A.784.784,0,0,0-1006.885,1161.89Z" transform="translate(1040.628 -1129.69)" fill="#981914"/>
        <path id="Trazado_7" data-name="Trazado 7" d="M-956.347,1152.6c.278,0,.51-.01.741,0a.8.8,0,0,1,.831.8.78.78,0,0,1-.863.757c-.443.006-.886,0-1.329,0-.574.007-.927.3-.938.773s.281.783.856.807a2.366,2.366,0,0,1,2.272,2.411,2.223,2.223,0,0,1-1.227,1.995.531.531,0,0,0-.34.6,2.813,2.813,0,0,1,0,.507.792.792,0,0,1-.787.765.788.788,0,0,1-.769-.778c-.011-.245,0-.49,0-.789-.262,0-.492.008-.722,0a.788.788,0,0,1-.845-.781.768.768,0,0,1,.841-.776c.43-.011.86,0,1.29,0,.615,0,.973-.276,1-.754s-.307-.781-.92-.84a2.319,2.319,0,0,1-2.2-2.495,2.186,2.186,0,0,1,1.236-1.906.5.5,0,0,0,.327-.568,2.966,2.966,0,0,1,0-.546.789.789,0,0,1,.759-.749.784.784,0,0,1,.79.717C-956.327,1152.017-956.347,1152.289-956.347,1152.6Z" transform="translate(974.396 -1147.107)" fill="#981914"/>
      </g>
      <path id="Trazado_8" data-name="Trazado 8" d="M-1090.986,1109.481a35.04,35.04,0,0,1-35-35,35.04,35.04,0,0,1,35-35,35.04,35.04,0,0,1,35,35A35.04,35.04,0,0,1-1090.986,1109.481Zm0-66.847a31.883,31.883,0,0,0-31.847,31.847,31.883,31.883,0,0,0,31.847,31.847,31.883,31.883,0,0,0,31.847-31.847A31.883,31.883,0,0,0-1090.986,1042.634Z" transform="translate(1147.986 -1025.291)" fill="#981914"/>
    </g>
  </g>
</svg>
