<svg xmlns="http://www.w3.org/2000/svg" width="70" height="70" viewBox="0 0 70 70">
  <g id="Grupo_3" data-name="Grupo 3" transform="translate(-50.181 -40.281)">
    <g id="Grupo_1" data-name="Grupo 1" transform="translate(68.062 58.659)">
      <path id="Trazado_4" data-name="Trazado 4" d="M97.92,113.925c.131-.781.278-1.655.427-2.53.331-1.932.658-3.865,1-5.8a.821.821,0,0,0-.27-.818q-2.889-2.793-5.755-5.609a2.732,2.732,0,0,1-.523-3.329,2.683,2.683,0,0,1,2.051-1.419q4.007-.592,8.017-1.163a.752.752,0,0,0,.635-.474q1.771-3.621,3.563-7.231a2.721,2.721,0,0,1,4.044-1.087,3.35,3.35,0,0,1,.978,1.172c1.2,2.36,2.367,4.742,3.53,7.124a.805.805,0,0,0,.7.5q3.975.559,7.944,1.158a2.648,2.648,0,0,1,2.268,1.872,2.62,2.62,0,0,1-.694,2.857q-2.819,2.784-5.679,5.527a1.053,1.053,0,0,0-.349,1.071c.462,2.573.893,5.151,1.334,7.728a2.778,2.778,0,0,1-4.078,2.959c-2.15-1.129-4.295-2.27-6.451-3.387-1.292-.669-.8-.658-2.063-.006-2.178,1.128-4.339,2.289-6.519,3.416a2.762,2.762,0,0,1-4.059-1.992C97.945,114.322,97.943,114.173,97.92,113.925Zm2.393.027c0,.361.252.548.565.429a2.845,2.845,0,0,0,.3-.149c2.3-1.209,4.61-2.41,6.9-3.632a2.979,2.979,0,0,1,3,.006q3.507,1.87,7.039,3.695a.431.431,0,0,0,.682-.486c-.43-2.59-.859-5.181-1.331-7.764a3.064,3.064,0,0,1,.954-2.978c1.882-1.8,3.738-3.627,5.593-5.454.14-.138.292-.4.248-.549s-.317-.292-.508-.321c-2.438-.368-4.873-.765-7.322-1.05a3.561,3.561,0,0,1-3.117-2.222c-1.034-2.263-2.184-4.474-3.3-6.7-.087-.173-.3-.393-.453-.39s-.347.229-.446.4c-.245.427-.445.879-.663,1.321q-1.439,2.918-2.878,5.836a2.768,2.768,0,0,1-2.152,1.623c-1.1.171-2.2.327-3.293.487-1.6.233-3.2.456-4.794.7-.17.026-.421.162-.451.289a.729.729,0,0,0,.2.529c.266.306.577.574.868.858,1.617,1.577,3.228,3.16,4.853,4.729a2.865,2.865,0,0,1,.9,2.684c-.3,1.774-.611,3.548-.916,5.321C100.63,112.1,100.47,113.039,100.314,113.952Z" transform="translate(-92.453 -84.341)" fill="#981914"/>
    </g>
    <g id="Grupo_2" data-name="Grupo 2" transform="translate(50.181 40.281)">
      <path id="Trazado_5" data-name="Trazado 5" d="M85.181,110.081a35,35,0,1,1,35-35A35.04,35.04,0,0,1,85.181,110.081Zm0-66.847a31.847,31.847,0,1,0,31.847,31.847A31.883,31.883,0,0,0,85.181,43.234Z" transform="translate(-50.181 -40.081)" fill="#981914"/>
    </g>
  </g>
</svg>
