<svg xmlns="http://www.w3.org/2000/svg" width="70" height="70" viewBox="0 0 70 70">
  <g id="Grupo_12" data-name="Grupo 12" transform="translate(0)">
    <g id="Grupo_10" data-name="Grupo 10" transform="translate(17.217 20.101)">
      <path id="Trazado_11" data-name="Trazado 11" d="M-525.554,1148.694v24.011a1.281,1.281,0,0,1-1.385.869c-1.407-.03-2.815-.012-4.222-.014h-.41c0,.179,0,.316,0,.453q0,3.419,0,6.839a1.146,1.146,0,0,1-1.858,1.08c-1.235-.7-2.471-1.389-3.7-2.093a.47.47,0,0,0-.536-.005c-1.239.712-2.507,1.375-3.726,2.12a1.179,1.179,0,0,1-1.853-1.091c.056-2.29.019-4.582.021-6.874v-.424h-16.7c-.98,0-1.375-.394-1.375-1.371q0-11.463,0-22.925c0-1.019.389-1.4,1.418-1.4q16.418,0,32.835-.009A1.415,1.415,0,0,1-525.554,1148.694Zm-2.248,1.431h-31.23v21.188h15.308a6.845,6.845,0,0,1-.222-4.731,6.755,6.755,0,0,1,2.894-3.761,6.847,6.847,0,0,1,7.65.233,6.69,6.69,0,0,1,2.437,3.2,6.88,6.88,0,0,1-.1,5.06h3.268Zm-14.225,18.505a4.632,4.632,0,0,0,4.635,4.634,4.649,4.649,0,0,0,4.629-4.611,4.653,4.653,0,0,0-4.624-4.655A4.641,4.641,0,0,0-542.027,1168.63Zm8.211,5.862a6.981,6.981,0,0,1-3.6,1,7.046,7.046,0,0,1-3.548-.991v4.634c.984-.554,1.938-1.079,2.879-1.625a1.266,1.266,0,0,1,1.379,0c.844.489,1.7.961,2.547,1.438.105.059.215.111.344.176Z" transform="translate(561.292 -1147.856)" fill="#981914"/>
      <path id="Trazado_12" data-name="Trazado 12" d="M-524.331,1178.443q-3.7,0-7.394,0a1.124,1.124,0,0,1-1.2-.8,1.1,1.1,0,0,1,.851-1.4,2.65,2.65,0,0,1,.485-.035q7.254,0,14.509,0a2.548,2.548,0,0,1,.554.047,1.12,1.12,0,0,1,.838,1.14,1.116,1.116,0,0,1-.969,1.03,4.083,4.083,0,0,1-.453.014Z" transform="translate(538.225 -1170.95)" fill="#981914"/>
      <path id="Trazado_13" data-name="Trazado 13" d="M-527.605,1205.787q-2.075,0-4.15,0a1.142,1.142,0,0,1-1.251-1.116,1.136,1.136,0,0,1,1.249-1.117q4.15,0,8.3,0a1.136,1.136,0,0,1,1.232,1.133,1.133,1.133,0,0,1-1.23,1.1Q-525.53,1205.79-527.605,1205.787Z" transform="translate(538.252 -1193.222)" fill="#981914"/>
    </g>
    <g id="Grupo_11" data-name="Grupo 11">
      <path id="Trazado_14" data-name="Trazado 14" d="M-619.117,1109.481a35.04,35.04,0,0,1-35-35,35.04,35.04,0,0,1,35-35,35.039,35.039,0,0,1,35,35A35.039,35.039,0,0,1-619.117,1109.481Zm0-66.847a31.883,31.883,0,0,0-31.847,31.847,31.883,31.883,0,0,0,31.847,31.847,31.883,31.883,0,0,0,31.847-31.847A31.883,31.883,0,0,0-619.117,1042.634Z" transform="translate(654.117 -1039.481)" fill="#981914"/>
    </g>
  </g>
</svg>
